<?xml version="1.0" standalone="no"?><!DOCTYPE svg PUBLIC "-//W3C//DTD SVG 1.1//EN" "http://www.w3.org/Graphics/SVG/1.1/DTD/svg11.dtd"><svg t="1614343304728" class="icon" viewBox="0 0 1501 1024" version="1.1" xmlns="http://www.w3.org/2000/svg" p-id="1150" xmlns:xlink="http://www.w3.org/1999/xlink" width="293.1640625" height="200"><defs><style type="text/css"></style></defs><path d="M1501.866667 238.933333a238.933333 238.933333 0 0 0-238.933334-238.933333H238.933333a238.933333 238.933333 0 0 0-238.933333 238.933333v546.133334a238.933333 238.933333 0 0 0 238.933333 238.933333h1024a238.933333 238.933333 0 0 0 238.933334-238.933333V238.933333zM238.933333 102.4h1024a136.533333 136.533333 0 0 1 136.533334 136.533333v102.4H102.4V238.933333a136.533333 136.533333 0 0 1 136.533333-136.533333z m1024 819.2H238.933333a136.533333 136.533333 0 0 1-136.533333-136.533333V443.733333h1297.066667v341.333334a136.533333 136.533333 0 0 1-136.533334 136.533333zM1211.733333 273.066667A51.2 51.2 0 1 0 1160.533333 221.866667 51.2 51.2 0 0 0 1211.733333 273.066667z m-204.8 0A51.2 51.2 0 1 0 955.733333 221.866667 51.2 51.2 0 0 0 1006.933333 273.066667z m-204.8 0A51.2 51.2 0 1 0 750.933333 221.866667 51.2 51.2 0 0 0 802.133333 273.066667z" p-id="1151"></path></svg>